<?xml version="1.0" encoding="UTF-8" standalone="no"?><!DOCTYPE svg PUBLIC "-//W3C//DTD SVG 1.1//EN" "http://www.w3.org/Graphics/SVG/1.1/DTD/svg11.dtd"><svg width="100%" height="100%" viewBox="0 0 256 256" version="1.1" xmlns="http://www.w3.org/2000/svg" xmlns:xlink="http://www.w3.org/1999/xlink" xml:space="preserve" style="fill-rule:evenodd;clip-rule:evenodd;stroke-linecap:round;stroke-linejoin:round;stroke-miterlimit:1.5;"><g><path d="M67.757,77.993c0.001,-33.25 26.994,-60.243 60.243,-60.243c33.249,0 60.243,26.994 60.243,60.243l0,100.014c0,33.249 -26.994,60.243 -60.243,60.243c-33.249,0 -60.243,-26.994 -60.243,-60.243l0,-100.014Z" style="fill:none;stroke:#f77;stroke-width:8px;"/><path d="M124.605,71.152c0,-1.874 1.521,-3.395 3.395,-3.395c1.874,0 3.395,1.522 3.395,3.395l0,16.313c0,1.874 -1.521,3.395 -3.395,3.395c-1.874,0 -3.395,-1.521 -3.395,-3.395l0,-16.313Z" style="fill:#f77;"/></g></svg>